<mxfile host="app.diagrams.net" modified="2021-07-26T15:48:49.572Z" agent="5.0 (Windows NT 10.0; Win64; x64) AppleWebKit/537.36 (KHTML, like Gecko) Chrome/92.0.4515.107 Safari/537.36" etag="9Szcd0PxI83-U3qVQQ6l" version="14.9.2" type="github">
  <diagram id="C5RBs43oDa-KdzZeNtuy" name="Page-1">
    <mxGraphModel dx="1267" dy="762" grid="1" gridSize="10" guides="1" tooltips="1" connect="1" arrows="1" fold="1" page="1" pageScale="1" pageWidth="827" pageHeight="1169" math="0" shadow="0">
      <root>
        <mxCell id="WIyWlLk6GJQsqaUBKTNV-0" />
        <mxCell id="WIyWlLk6GJQsqaUBKTNV-1" parent="WIyWlLk6GJQsqaUBKTNV-0" />
        <mxCell id="A8DZ1qtcjRUrfpOoNAwC-5" value="" style="edgeStyle=orthogonalEdgeStyle;rounded=0;orthogonalLoop=1;jettySize=auto;html=1;" edge="1" parent="WIyWlLk6GJQsqaUBKTNV-1" source="WIyWlLk6GJQsqaUBKTNV-3" target="A8DZ1qtcjRUrfpOoNAwC-4">
          <mxGeometry relative="1" as="geometry" />
        </mxCell>
        <mxCell id="A8DZ1qtcjRUrfpOoNAwC-6" value="No" style="edgeLabel;html=1;align=center;verticalAlign=middle;resizable=0;points=[];" vertex="1" connectable="0" parent="A8DZ1qtcjRUrfpOoNAwC-5">
          <mxGeometry x="-0.6825" y="1" relative="1" as="geometry">
            <mxPoint x="-10" y="-1" as="offset" />
          </mxGeometry>
        </mxCell>
        <mxCell id="A8DZ1qtcjRUrfpOoNAwC-11" value="" style="edgeStyle=orthogonalEdgeStyle;rounded=0;orthogonalLoop=1;jettySize=auto;html=1;" edge="1" parent="WIyWlLk6GJQsqaUBKTNV-1" source="WIyWlLk6GJQsqaUBKTNV-3" target="A8DZ1qtcjRUrfpOoNAwC-10">
          <mxGeometry relative="1" as="geometry" />
        </mxCell>
        <mxCell id="WIyWlLk6GJQsqaUBKTNV-3" value="Divisible by 4" style="rounded=1;whiteSpace=wrap;html=1;fontSize=12;glass=0;strokeWidth=1;shadow=0;" parent="WIyWlLk6GJQsqaUBKTNV-1" vertex="1">
          <mxGeometry x="160" y="80" width="120" height="40" as="geometry" />
        </mxCell>
        <mxCell id="A8DZ1qtcjRUrfpOoNAwC-4" value="Not a Leap Year" style="whiteSpace=wrap;html=1;rounded=1;shadow=0;strokeWidth=1;glass=0;" vertex="1" parent="WIyWlLk6GJQsqaUBKTNV-1">
          <mxGeometry x="10" y="200" width="120" height="60" as="geometry" />
        </mxCell>
        <mxCell id="A8DZ1qtcjRUrfpOoNAwC-15" value="" style="edgeStyle=orthogonalEdgeStyle;rounded=0;orthogonalLoop=1;jettySize=auto;html=1;" edge="1" parent="WIyWlLk6GJQsqaUBKTNV-1" source="A8DZ1qtcjRUrfpOoNAwC-10" target="A8DZ1qtcjRUrfpOoNAwC-14">
          <mxGeometry relative="1" as="geometry" />
        </mxCell>
        <mxCell id="A8DZ1qtcjRUrfpOoNAwC-17" value="" style="edgeStyle=orthogonalEdgeStyle;rounded=0;orthogonalLoop=1;jettySize=auto;html=1;" edge="1" parent="WIyWlLk6GJQsqaUBKTNV-1" source="A8DZ1qtcjRUrfpOoNAwC-10" target="A8DZ1qtcjRUrfpOoNAwC-16">
          <mxGeometry relative="1" as="geometry" />
        </mxCell>
        <mxCell id="A8DZ1qtcjRUrfpOoNAwC-10" value="evenly divisible by 100" style="rounded=1;whiteSpace=wrap;html=1;shadow=0;strokeWidth=1;glass=0;" vertex="1" parent="WIyWlLk6GJQsqaUBKTNV-1">
          <mxGeometry x="350" y="200" width="120" height="60" as="geometry" />
        </mxCell>
        <mxCell id="A8DZ1qtcjRUrfpOoNAwC-12" value="Yes" style="edgeLabel;html=1;align=center;verticalAlign=middle;resizable=0;points=[];" vertex="1" connectable="0" parent="WIyWlLk6GJQsqaUBKTNV-1">
          <mxGeometry x="356" y="100" as="geometry" />
        </mxCell>
        <mxCell id="A8DZ1qtcjRUrfpOoNAwC-14" value="Leap Year" style="whiteSpace=wrap;html=1;rounded=1;shadow=0;strokeWidth=1;glass=0;" vertex="1" parent="WIyWlLk6GJQsqaUBKTNV-1">
          <mxGeometry x="140" y="380" width="120" height="60" as="geometry" />
        </mxCell>
        <mxCell id="A8DZ1qtcjRUrfpOoNAwC-21" value="" style="edgeStyle=orthogonalEdgeStyle;rounded=0;orthogonalLoop=1;jettySize=auto;html=1;" edge="1" parent="WIyWlLk6GJQsqaUBKTNV-1" source="A8DZ1qtcjRUrfpOoNAwC-16" target="A8DZ1qtcjRUrfpOoNAwC-20">
          <mxGeometry relative="1" as="geometry" />
        </mxCell>
        <mxCell id="A8DZ1qtcjRUrfpOoNAwC-23" value="" style="edgeStyle=orthogonalEdgeStyle;rounded=0;orthogonalLoop=1;jettySize=auto;html=1;" edge="1" parent="WIyWlLk6GJQsqaUBKTNV-1" source="A8DZ1qtcjRUrfpOoNAwC-16" target="A8DZ1qtcjRUrfpOoNAwC-22">
          <mxGeometry relative="1" as="geometry" />
        </mxCell>
        <mxCell id="A8DZ1qtcjRUrfpOoNAwC-16" value="evenly divisible by 400" style="whiteSpace=wrap;html=1;rounded=1;shadow=0;strokeWidth=1;glass=0;" vertex="1" parent="WIyWlLk6GJQsqaUBKTNV-1">
          <mxGeometry x="580" y="380" width="120" height="60" as="geometry" />
        </mxCell>
        <mxCell id="A8DZ1qtcjRUrfpOoNAwC-18" value="Yes" style="edgeLabel;html=1;align=center;verticalAlign=middle;resizable=0;points=[];" vertex="1" connectable="0" parent="WIyWlLk6GJQsqaUBKTNV-1">
          <mxGeometry x="380" y="100" as="geometry">
            <mxPoint x="171" y="130" as="offset" />
          </mxGeometry>
        </mxCell>
        <mxCell id="A8DZ1qtcjRUrfpOoNAwC-19" value="No" style="edgeLabel;html=1;align=center;verticalAlign=middle;resizable=0;points=[];" vertex="1" connectable="0" parent="WIyWlLk6GJQsqaUBKTNV-1">
          <mxGeometry x="130" y="110" as="geometry">
            <mxPoint x="147" y="119" as="offset" />
          </mxGeometry>
        </mxCell>
        <mxCell id="A8DZ1qtcjRUrfpOoNAwC-20" value="&lt;span&gt;Not a Leap Year&lt;/span&gt;" style="whiteSpace=wrap;html=1;rounded=1;shadow=0;strokeWidth=1;glass=0;" vertex="1" parent="WIyWlLk6GJQsqaUBKTNV-1">
          <mxGeometry x="380" y="570" width="120" height="60" as="geometry" />
        </mxCell>
        <mxCell id="A8DZ1qtcjRUrfpOoNAwC-22" value="&lt;span&gt;Leap Year&lt;/span&gt;" style="whiteSpace=wrap;html=1;rounded=1;shadow=0;strokeWidth=1;glass=0;" vertex="1" parent="WIyWlLk6GJQsqaUBKTNV-1">
          <mxGeometry x="800" y="570" width="120" height="60" as="geometry" />
        </mxCell>
        <mxCell id="A8DZ1qtcjRUrfpOoNAwC-24" value="Yes" style="edgeLabel;html=1;align=center;verticalAlign=middle;resizable=0;points=[];" vertex="1" connectable="0" parent="WIyWlLk6GJQsqaUBKTNV-1">
          <mxGeometry x="370" y="110" as="geometry">
            <mxPoint x="414" y="299" as="offset" />
          </mxGeometry>
        </mxCell>
        <mxCell id="A8DZ1qtcjRUrfpOoNAwC-25" value="No" style="edgeLabel;html=1;align=center;verticalAlign=middle;resizable=0;points=[];" vertex="1" connectable="0" parent="WIyWlLk6GJQsqaUBKTNV-1">
          <mxGeometry x="130" y="110" as="geometry">
            <mxPoint x="385" y="302" as="offset" />
          </mxGeometry>
        </mxCell>
      </root>
    </mxGraphModel>
  </diagram>
</mxfile>
